<svg xmlns="http://www.w3.org/2000/svg" style="display:block" viewBox="0 0 256 256"><path d="M0 0h256v256H0z" style="fill:#fefefe"/><path d="m0 0 1.75-.312L4 0c1.114 1.02 1.114 1.02 2.25 2.063L8 5l.25 1.89v1.923L8 12h3v2h2q.758 1.903 1.5 3.813l.844 2.144L16 22v3h4v4h2a61 61 0 0 1 1 4q.134 2.499.125 5l.008 2.563L23 43a61 61 0 0 1-1 4h-2v2h-2v2h-2v3h2v2h2v4h2l2 5h2l1 6h2v3h2v4h2a171 171 0 0 1 2.332 5.176L36 85l.188 2.438L36 89h2v3h2v4h2q1.263 3.59 2.5 7.188l.723 2.04q.673 1.97 1.308 3.953L47 111l.156 2.988L47 116h2v7h2l.244 1.554.722 4.59q.413 2.63.82 5.26a318 318 0 0 0 2.401 13.534c.348 2.009.606 4.034.813 6.062.222 6.665.129 13.334 0 20h2v-5h2l-.14-1.441a99 99 0 0 1-.122-4.606L60 160c.69-3.122 1.608-6.178 2.5-9.247A122 122 0 0 0 64 145q.267-1.794.453-3.598c.148-2.067.275-4.136.371-6.207L65 133l1-1c.207-1.495.367-2.997.5-4.5s.293-3.005.5-4.5l1-1c.23-1.347.412-2.704.563-4.062l.253-2.223L69 114h2l-.14-1.582a106 106 0 0 1-.122-4.703L71 105l.855-2.871q1.049-2.79 2.172-5.55L75 94c.369-1.66.714-3.325 1-5h2v-4h2l.438-3.375q.234-1.82.562-3.625l1-2h2l1-5h2v-4h-2v-2h-2l-1-3c-.148-2.474-.23-4.9-.25-7.375l-.062-2q-.016-1.928.048-3.854L82 47l1.516-2.977L85 42h4v-6h2l.438-2.375c.185-.866.37-1.733.562-2.625l1-2h3v-6h2v-3h2v-2h7v2h2v2h2v3h2l1 7 2-1 1.883-.203q2.328-.048 4.656-.016L125 31l2.336.531q2.074.689 4.133 1.422L133 34l.746 1.969L134 38l-.437 2.25L133 42l-4 1v2h-2v2h-2c.03 1.67.03 1.67.063 3.375l.035 1.898L125 54l-1 2h-2v2h-4v7h-2v2h-2l-1 4h-2v2c-1.322.375-2.66.699-4 1a65 65 0 0 1-4.437.188A67 67 0 0 1 98 74l-3.062-1L93 72l-2 4h-2v4h-2l-.371 2.137L86 85a185 185 0 0 1-2.062 5.813L82.84 93.77 82 96h-2v6h-2l-.184 1.652L76 120h2v-2h2v-4h2c.685-1.324 1.349-2.66 2-4l1-3h2v-2h2v-2h2v-2l5-1v-2h2v-2h2v-2h2v-2l5-1v-2h4v-2h5v-2h4v-2l11-1v-2l2.688-1 1.89-.555L138 78c4.342-.172 8.656-.118 13 0v2l-4.395 2.344L145 83h-3v2h-4v2h-2v2h-3v2a201 201 0 0 1-6 3h-2v2h-2v2h-3v4l-4 1v2h-2l-1 4h-2v2l-4 1v4h-2v2h-2l-1 5h-2v4h-2v2h-2v7h-2l-.113 1.652q-.21 2.394-.469 4.782L93 145c-.695 2.273-1.496 4.488-2.305 6.723L90 154a93 93 0 0 0-.625 4.938l-.164 2.214L89 163l-1 2c-.225 1.537-.408 3.08-.562 4.625l-.254 2.477L87 174h2v-2h2l1-5h2v-2h2v-2h2v-3h2v-2h2l1-4h4v-2h2v-2l4-1v-2h3v-2a479 479 0 0 1 4.25-1.5l2.39-.844L125 142l2.297-.094L129 142v-2c5.268-.166 10.537-.267 15.807-.142L147 140l3.2.668a77 77 0 0 1 4.464 1.676L156 143v2h2v2h2v2h2v2l5 1v2l3 1v1h-5v-2l-11-3v-2c-4.01.258-8.006.566-12 1-2.51.459-4.974.996-7.453 1.598L133 152v2h-4v2h-4l-1 4-3 1-1 2h-2v2h-4l-1 4h-2v2h-2v3h-2v2h-2v2h-2l-1 7h-2v4h-2v7h4l1-4c3.312-.029 6.625-.047 9.938-.062l2.865-.026 2.724-.01 2.524-.016L123 192l1 1c1.18.23 2.37.41 3.563.563L131 194v2h3v2l-1.833.06c-2.764.096-5.528.205-8.292.315l-2.883.094c-2.678.111-5.326.251-7.992.531l-2.019.485-1.66.554L107 201v2h-2c-1.86 6.63-3.585 13.26-5 20h-2v11H25l-2-25-1-2-.098-1.727L22 200h-2v-4h-2v-5h-2a480 480 0 0 1-1.5-3.812l-.844-2.145L13 183v-3h-2v-2H9v-4H7v-2H5l-1.625-1.375L2 169v-2H0v-2h-2v-2a178 178 0 0 0-4-2l-3-1v-2h-2v-2h-4v-2l-2.187-.375L-20 153a123 123 0 0 1-5-2v-2c-2.94.008-5.864.084-8.8.22q-2.092.16-4.177.398L-40 150l-1.824.636q-1.68.755-3.327 1.58a180 180 0 0 0-4.36 2.507L-52 156l-2.332.184L-56 156v-2l5-2v-2a132 132 0 0 1 5-3h2v-2h4v-2l2.879-1.477 1.942-.829L-33 140l2.324-.296c2.544-.106 5.068-.113 7.613-.079l2.592-.035q2.531.01 5.06.122L-13 140l2.305.624q2.019.728 4.006 1.538L-5 143a80 80 0 0 1 3 2v2h4v2l1.813.375L6 150l1.75 1.063L9 152v2h2v2h2v2l3 1v3l4 1v2h2v4h2a132 132 0 0 1 3 5v2h2c-1.363-7.528-1.363-7.528-3-15a64 64 0 0 0-1.625-4.125l-.746-1.758L23 153c-.425-3.488-.683-6.93-.887-10.437L22 140h-2v-4h-2a805 805 0 0 1-2.5-4.375l-1.406-2.46L13 127v-2h-2v-3H9v-2H7v-2H5l-1-4H2v-2l-4-1v-2h-2v-2h-2v-2h-3v-2l-2.937-.812L-15 101l-1-3h-4v-2l-3.25-.375A71 71 0 0 1-27 95l-2.437-1.062L-31 93v-2h-2v-2c3.08-.136 6.159-.22 9.242-.2q1.881.06 3.758.2a86 86 0 0 1 5.564 1.073Q-10.704 90.983-7 92v2h5v2h4v2l9 1v2h2v2h3v2h2v2h2v2l1.688-.312L24 109l1.379.973 1.371 1.277 1.277 1.371L29 114l.313 2.313L29 118h2v2l3 1v2h2v4h2v2h2v3h2v4h2l1 9h2v4h2v-11h-2l-.078-1.582a168 168 0 0 0-.434-4.711L46 129a137 137 0 0 0-2.062-5.625A107 107 0 0 1 42 118l-.262-2.254.012-1.933L42 111h-2v-4h-2a78 78 0 0 1-2-5l-.125-2.312L36 98h-2a171 171 0 0 1-2.332-5.176L31 91l-.187-2.437L31 87h-2v-4h-2a486 486 0 0 1-2.5-4.75l-1.406-2.672L22 73l-.156-2.328L22 69h-2v-2h-2v-2h-2l-3-9H7v2h-9v-2h-5v-2l-4-1v-4h-2v-2h-2v-5h-3v-2h-2v-4h-2v-5h-2l-1-4h-2v-3h-2v-4h2v-2h3v-2h15V9h2V7h2l1-3h2V2h2z" transform="translate(69 11)" style="fill:#3f5d31"/><path d="m0 0 2.25-.125L4 0v2L0 3v2h-2v2h-4l-1 4h-2v2h-2v3h-2v2h-2l-.312 1.875L-16 22q-1.47 1.044-3 2l-1 3h-2v2h-2l-.312 2.125L-25 34l-3 6-.687 2.875L-29 45h-2v4h-2l.188 2.688.003 1.953L-33 56a190 190 0 0 1-1.375 5.938c-.58 2.354-1.147 4.687-1.625 7.062-.545 3.587-.963 7.188-1.353 10.795A240 240 0 0 1-38 85l-1 2c-.21 2.359-.374 4.7-.5 7.063-.336 5.67-.782 11.3-1.5 16.937h1l2 16 1-20h2l.438-2.25c.464-2.27.98-4.508 1.562-6.75h2v-4h2l.375-2.25L-28 89l1.063-2.312L-26 85h2v-3h2v-2h2v-2h2v-2h2l.813-1.937L-14 72l3-1v-2h2l1-4 6-2v-2l7-1v-2h4v-2h5v2h-3v2l-1.39.586c-2.712 1.15-5.399 2.311-8.047 3.602L0 65v2h-4v2h-2l-1 4-4 1v2h-2v2h-2v2l-2 1-.625 2.063L-18 85h-2v2h-2v4h-2v10h2v6h4l1-4c3.312-.029 6.625-.047 9.938-.062l2.865-.026 2.724-.01 2.524-.016L3 103l1 1c1.18.23 2.37.41 3.563.563L11 105v2h3v2l-1.833.06c-2.764.096-5.528.205-8.292.315-.951.03-1.903.062-2.883.094-2.678.111-5.326.251-7.992.531l-2.019.485-1.66.554L-13 112v2h-2c-1.86 6.63-3.585 13.26-5 20h-2v11h-73l-2-25-1-2-.098-1.727L-98 111h-2v-4h-2v-5h-2a480 480 0 0 1-1.5-3.812l-.844-2.145L-107 94v-3h-2v-2h-2v-4h-2v-2h-2l-1.625-1.375L-118 80v-2h-2v-2h-2v-2a178 178 0 0 0-4-2l-3-1v-2h-2v-2h-4v-2l-2.187-.375L-140 64a123 123 0 0 1-5-2v-2c-2.94.008-5.864.084-8.8.22q-2.092.16-4.177.398L-160 61l-1.824.636q-1.68.755-3.327 1.58a180 180 0 0 0-4.36 2.507L-172 67l-2.332.184L-176 67v-2l5-2v-2a132 132 0 0 1 5-3h2v-2h4v-2l2.879-1.477 1.942-.829L-153 51l2.324-.296c2.544-.106 5.068-.113 7.613-.079l2.592-.035q2.531.01 5.06.122L-133 51l2.305.624q2.019.729 4.006 1.538L-125 54a80 80 0 0 1 3 2v2h4v2l1.813.375L-114 61l1.75 1.063L-111 63v2h2v2h2v2l3 1v3l4 1v2h2v4h2a132 132 0 0 1 3 5v2h2c-1.363-7.528-1.363-7.528-3-15a64 64 0 0 0-1.625-4.125l-.746-1.758L-97 64c-.425-3.488-.683-6.93-.887-10.437L-98 51h-2v-4h-2a805 805 0 0 1-2.5-4.375l-1.406-2.46L-107 38v-2h-2v-3h-2v-2h-2v-2h-2l-1-4h-2v-2l-4-1v-2h-2v-2h-2v-7l10 3v2h3v2h4v2l2.375.938c.866.35 1.733.7 2.625 1.062l2 1v2h2v2h2v2h2l1 4 4 1v2h2v4h2a132 132 0 0 1 3 5v2h2v6h2v3h2v4h2a178 178 0 0 1 2.332 6.531L-73 69l.2 2.156c-.01 1.616-.097 3.231-.2 4.844h2v9h2a83 83 0 0 1 1.488 4.607L-67 92c.5 4.427.784 8.867 1.063 13.313q.229 3.525.472 7.05l.2 3.134L-65 118l1 2 1 7-1-19 2-1 1 2 1-13h2l-.14-1.512a102 102 0 0 1-.122-4.648L-58 87c.742-2.816 1.58-5.552 2.498-8.312A325 325 0 0 0-54 74c.292-1.43.554-2.867.75-4.312L-53 67h2v-7h2v-4h2l.375-3.062q.279-1.975.625-3.938c.597-2.361 1.287-4.67 2-7h2v-4h2v-4h2l.938-2.375c.35-.866.7-1.733 1.062-2.625l1-2h2v-2l4-1 .438-1.875L-28 20l1-2h3v-2h2v-2l4-1v-2h3V9h2V7h4V5l5-1V2l1.75-1zm-23 94h5v2h-2v4h-2v-2h-2z" transform="translate(189 100)" style="fill:#405e32"/><path d="M0 0c4.342-.172 8.656-.118 13 0v2L8.605 4.344 7 5H4v2H0v2h-2v2h-3v2a201 201 0 0 1-6 3h-2v2h-2v2h-3v4l-4 1v2h-2l-1 4h-2v2l-4 1v4h-2v2h-2l-1 5h-2v4h-2v2h-2v7h-2l-.113 1.652q-.21 2.394-.469 4.782L-45 67c-.695 2.273-1.496 4.488-2.305 6.723L-48 76a93 93 0 0 0-.625 4.938l-.164 2.214L-49 85l-1 2c-.225 1.537-.408 3.08-.562 4.625l-.254 2.477L-51 96h2v-2h2l1-5h2v-2h2v-2h2v-3h2v-2h2l1-4h4v-2h2v-2l4-1v-2h3v-2a479 479 0 0 1 4.25-1.5l2.39-.844L-13 64c.758-.03 1.516-.062 2.297-.094L-9 64v-2c5.268-.166 10.537-.267 15.807-.142L9 62l3.2.668a77 77 0 0 1 4.464 1.676L18 65v2h2v2h2v2h2v2l5 1v2l3 1v1h-5v-2l-11-3v-2c-4.01.258-8.006.566-12 1-2.51.459-4.974.996-7.453 1.598L-5 74v2h-4v2h-4l-1 4-3 1-1 2h-2v2h-4l-1 4h-2v2h-2v3h-2v2h-2v2h-2l-.25 2.375L-36 105l-2.062 1.313L-40 107l-1-1-2 3 1-7h2v-4h2v-2h2l1-5h2v-2h2v-2h2v-2l4-1 1-4h2v-2h4v-2c.459-.425.918-.85 1.39-1.29.614-.44 1.228-.88 1.86-1.335l1.828-1.352L-11 71l2.234-.148L-7 71v-2h3v-2h-5v2h-4v2l-7 1v2l-1.312 1L-23 76h-3l-1 4h-2v2l-1.023 1.29c-.67.66-.67.66-1.352 1.335l-1.336 1.352L-34 87h-2v2h-2v2h-2v2h-2v3h-2l-3 9h-2v4h-2l-.437 2.25c-.465 2.27-.982 4.508-1.563 6.75h-2l.016 1.661c.127 15.379.127 15.379-.114 20.366A159 159 0 0 1-56 149h-1l-.076-1.665q-.177-3.762-.361-7.523l-.12-2.619c-.12-2.401-.25-4.796-.443-7.193l-.535-3.113L-59 125h-1a560 560 0 0 1-.062-4.312l-.036-2.426L-60 116l1-3q.194-1.748.281-3.504l.114-1.994.21-4.14A204 204 0 0 1-58 98l1-2c.302-2.292.567-4.577.813-6.875.454-3.965.97-7.907 1.67-11.837A913 913 0 0 1-51 60h2v-4h2l.313-3.187.269-1.938L-46 49a88 88 0 0 1 3-5l.688-2.312L-42 40h2v-2h2l1-4 3-1 1-4h2v-2h2v-3h2v-2h2l1-4h4v-2h2v-2l4-1v-2l-8 2v2l-5 1v2h-4v2h-2v2h-3v2l-4 1v2h-2v2h-3l-2 6-4 1v2h-2l-.937 2.375L-55 43l-1 2h-2v4h-2a100 100 0 0 1-1-6l1-3h2v-4h2c.685-1.324 1.349-2.66 2-4l1-3h2v-2h2v-2h2v-2l5-1v-2h2v-2h2v-2h2v-2l5-1v-2h4V9h5V7h4V5l11-1V2l2.688-1 1.89-.555zm-62 49 2 1Zm20 60h2v3h-2z" transform="translate(207 89)" style="fill:#3c5b2d"/><path d="m0 0 2.25-.125L4 0v2L0 3v2h-2v2h-4l-1 4h-2v2h-2v3h-2v2h-2l-.312 1.875L-16 22q-1.47 1.044-3 2l-1 3h-2v2h-2l-.312 2.125L-25 34l-3 6-.687 2.875L-29 45h-2v4h-2l.188 2.688.003 1.953L-33 56a190 190 0 0 1-1.375 5.938c-.58 2.354-1.147 4.687-1.625 7.062-.545 3.587-.963 7.188-1.353 10.795A240 240 0 0 1-38 85l-1 2c-.207 2.483-.374 4.95-.5 7.438q-.104 2.029-.219 4.058l-.092 1.818L-40 102l-1 3c-.137 1.74-.225 3.483-.281 5.227l-.114 3.128-.105 3.27c-.356 10.798-.356 10.798-.754 15.155-.23 2.076-.485 4.148-.746 6.22h-14c-.2-2.347-.2-2.347-.402-4.742l-.535-6.133-.264-3.129-.264-2.988-.238-2.761L-59 116l-1-2a61 61 0 0 1-.098-4.133l.01-2.441.026-2.551.013-2.574Q-60.03 99.15-60 96h2l-.14-1.512a102 102 0 0 1-.122-4.648L-58 87c.742-2.816 1.58-5.552 2.498-8.312A325 325 0 0 0-54 74c.292-1.43.554-2.867.75-4.312L-53 67h2v-7h2v-4h2l.375-3.062q.279-1.975.625-3.938c.597-2.361 1.287-4.67 2-7h2v-4h2v-4h2l.938-2.375L-36 29l1-2h2v-2l4-1 .438-1.875L-28 20l1-2h3v-2h2v-2l4-1v-2h3V9h2V7h4V5l5-1V2l1.75-1z" transform="translate(189 100)" style="fill:#fefefe"/><path d="M0 0h7v2h2v2h2v3h2l1 7 2-1 1.883-.203q2.328-.048 4.656-.016L25 13l2.336.531q2.074.689 4.133 1.422L33 16l.746 1.969L34 20l-.437 2.25L33 24l-4 1v2h-2v2h-2l.063 3.375.035 1.898L25 36l-1 2h-2v2h-4v7h-2v2h-2l-1 4h-2v2c-1.322.375-2.66.699-4 1a65 65 0 0 1-4.437.188A67 67 0 0 1-2 56l-3.062-1L-7 54l-2 4h-2v2h-2l-.562-2.687L-14 54l.438-2.875c.185-.701.37-1.403.562-2.125h-2v-2h-2l-1-3c-.148-2.474-.23-4.9-.25-7.375l-.062-2q-.016-1.928.048-3.854L-18 29l1.516-2.977L-15 24h4v-6h2l.438-2.375L-8 13l1-2h3V5h2V2h2zm-16 58h2v2h-2z" transform="translate(169 29)" style="fill:#405e31"/><path d="m0 0 6 1v2h3v2h4v2l2.375.938c.866.35 1.733.7 2.625 1.062l2 1v2h2v2h2v2h2l1 4 4 1v2h2v4h2a132 132 0 0 1 3 5v2h2v6h2v3h2v4h2a178 178 0 0 1 2.332 6.531L49 56l.2 2.156c-.01 1.616-.097 3.231-.2 4.844h2v9h2a83 83 0 0 1 1.488 4.607L55 79c.5 4.427.784 8.867 1.063 13.313q.229 3.525.472 7.05l.2 3.134L57 105l1 2c.309 2.298.509 4.597.719 6.906L59 116l1 2v7H40l-.184-5.836-.188-5.59q-.066-1.944-.125-3.887-.088-2.793-.187-5.585l-.11-3.396L39 98l-1-2a228 228 0 0 1-.5-7.437q-.104-2.03-.219-4.06l-.092-1.817L37 81l-1-3c-.36-2.638-.586-5.273-.812-7.926-.19-3.094-.25-6.162-.25-9.261Q34.959 58.406 35 56h-2v-9h-2v-4h-2l-.586-1.828-.789-2.422-.773-2.39L26 34l-1.102-2.11L24 30v-3h-2v-4h-2l-2-5h-2l-1-4h-2v-2h-2V9H9V7H6V5H4V3H2V1z" transform="translate(67 113)" style="fill:#fefefe"/><path d="M0 0h5v2H2v2l-1.39.586c-2.712 1.15-5.399 2.311-8.047 3.601L-9 9v2h-4v2h-2l-1 4-4 1v2h-2v2h-2v2l-2 1-.625 2.063L-27 29h-2v2h-2v4h-2v10h2v6h4l1-4c3.312-.029 6.625-.047 9.938-.062l2.865-.026 2.724-.01 2.524-.016L-6 47l1 1c1.18.23 2.37.41 3.563.563L2 49v2h3v2l-1.833.06c-2.764.096-5.528.205-8.292.315-.951.03-1.903.062-2.883.094-2.678.111-5.326.251-7.992.531l-2.019.485-1.66.554L-22 56v2h-2c-1.86 6.63-3.585 13.26-5 20h-2v9h-42v-3h2l-2-32 2-1a121 121 0 0 1 1.953 3.777l1.108 2.492L-67 60l.424 2.805c.188 2.923.283 5.83.326 8.758l.09 3.056c.07 2.46.117 4.92.16 7.381h14l.148-5.145.227-6.668.094-3.392.117-3.252.095-3L-51 58l2-3 2 16 1-20h2l.438-2.25c.464-2.27.98-4.508 1.562-6.75h2v-4h2l.375-2.25L-37 33l1.063-2.312L-35 29h2v-3h2v-2h2v-2h2v-2h2l.813-1.937L-23 16l3-1v-2h2l1-4 6-2V5l7-1V2h4zm-32 38h5v2h-2v4h-2v-2h-2z" transform="translate(198 156)" style="fill:#3e5c2f"/><path d="m0 0 1.75-.312L4 0c1.114 1.02 1.114 1.02 2.25 2.063L8 5l.25 1.89v1.923L8 12h3v2h2q.758 1.903 1.5 3.813l.844 2.144L16 22v3h4v4h2c.382 1.32.703 2.658 1 4q.17 2.497.188 5l.042 2.563L23 43l-1.012 2.313L21 47l-1-6-3 6H9l-1 6H-2v-2h-3v-2h-2l.688-1.875L-5 45l2.625-1.25L0 43v-3h-11v-2l-1.937.375L-15 39l-1 2 4 1-1 5h-2v-5h-3v-2h-2v-4h-2v-5h-2l-1-4h-2v-3h-2v-4h2v-2h3v-2h15V9h2V7h2l1-3h2V2h2z" transform="translate(69 11)" style="fill:#405e31"/><path d="M0 0c5.268-.166 10.537-.267 15.807-.142L18 0l3.2.668a77 77 0 0 1 4.464 1.676L27 3v2h2v2h2v2h2v2l5 1v2l3 1v1h-5v-2l-11-3V9c-4.01.258-8.006.566-12 1-2.51.459-4.974.996-7.453 1.598L4 12v2H0v2h-4l-1 4-3 1-1 2h-2v2h-4l-1 4h-2v2h-2v3h-2v2h-2v2h-2l-.25 2.375L-27 43l-2.062 1.313L-31 45l-1-1-2 3 1-7h2v-4h2v-2h2l1-5h2v-2h2v-2h2v-2l4-1 1-4h2v-2h4v-2c.459-.425.918-.85 1.39-1.29.614-.44 1.228-.88 1.86-1.335l1.828-1.352L-2 9l2.234-.148L2 9V7h3V5H0v2h-4v2l-7 1v2l-1.312 1L-14 14h-3v2h-3v2h-2v2l-1.875.25L-26 21l-1.25 2.063L-28 25l-1-3 1.375-1.5L-26 19h2l-1-3 1-2h2v-2h2v-2l4-1V7h3V5a479 479 0 0 1 4.25-1.5l2.39-.844L-4 2c.758-.03 1.516-.062 2.297-.094L0 2zm-33 47h2v3h-2z" transform="translate(198 151)" style="fill:#3e5c2f"/><path d="m0 0 2 1-1 4h-2zm-3 5h2v2h2l1-2v2h2v2H2l-.371 2.137L1 14a185 185 0 0 1-2.062 5.813L-2.16 22.77-3 25h-2v6h-2c-.09.818-.09.818-.184 1.652L-9 49l2 1v10h-2l-.375 3.063A117 117 0 0 1-10 67c-.597 2.361-1.287 4.67-2 7h-2v4h-2v7h-2l.188 2.938.011 1.906L-18 92q-.675 2.49-1.5 4.938c-.49 1.357-.986 2.713-1.5 4.062l-1-1.812L-23 97v-3h-2c.274-2.355.59-4.665 1-7q.737-3.097 1.5-6.187c.543-2.274 1.073-4.518 1.5-6.813.358-3.247.61-6.473.79-9.734L-20 62l1-1c.207-1.495.367-2.997.5-4.5s.293-3.005.5-4.5l1-1c.23-1.347.412-2.704.563-4.062l.253-2.223L-16 43h2l-.14-1.582a106 106 0 0 1-.122-4.703L-14 34l.855-2.871q1.049-2.79 2.172-5.55L-10 23c.369-1.66.714-3.325 1-5h2v-4h2l.438-3.375Q-4.328 8.805-4 7z" transform="translate(154 82)" style="fill:#3f5d31"/><path d="M0 0h1v10H0zm-24 1h4v2h11v3l-4.59 2.93L-15 10l-1 2h2v2h3v2h10v-6h9l1-4 1.063-1.75L11 3l1 1 .125 2.938L12 10l-1 2H9v2H7v3h2v2h2v4h2l2 5h2l1 6h2v3h2v4h2a171 171 0 0 1 2.332 5.176L27 48l.188 2.438L27 52h2v3h2v4h2a479 479 0 0 1 1.5 4.25l.844 2.39L36 68c.03.758.062 1.516.094 2.297L36 72h-2v2h-3v-4h-2a78 78 0 0 1-2-5l-.125-2.312L27 61h-2a171 171 0 0 1-2.332-5.176L22 54l-.187-2.437L22 50h-2v-4h-2a486 486 0 0 1-2.5-4.75l-1.406-2.672L13 36l-.156-2.328L13 32h-2v-2H9v-2H7l-3-9h-6v2h-9v-2h-5v-2l-4-1v-4h-2V5l-3-1z" transform="translate(78 48)" style="fill:#365726"/><path d="M0 0c2.008.281 4.01.61 6 1l.563 1.75L7 5l-.437 2.25L6 9l-4 1v2H0v2h-2l.063 3.375.035 1.898L-2 21l-1 2h-2v2h-4v7h-2v2h-2l-1 4h-2v2c-1.322.377-2.659.7-4 1a71 71 0 0 1-4.625.188l-2.352.042L-29 41l-2-2 10-1v-2h-8v-2h-2v-2h2v-2l1.625-.937L-25 28l3.188-.5L-19 27l1-2-4-1v-5l4-1v-2h9v-2h-7V7l1.25-1L-13 5l2.188-.125L-9 5V3l1.46-.402 1.915-.535 1.898-.528L-2 1z" transform="translate(196 44)" style="fill:#3d5c2e"/><path d="M0 0c4.342-.172 8.656-.118 13 0v2L8.605 4.344 7 5H4v2H0v2h-2v2h-3v2a201 201 0 0 1-6 3h-2v2h-2v2h-3v2l-4 1-1-3 1-2h2v-2h2v-2l4-1v-2l-8 2v2l-5 1v2h-4v2h-2v2h-3v2l-4 1v2h-2v2h-3l-2 6-4 1v2h-2l-.937 2.375L-55 43l-1 2h-2v4h-2a100 100 0 0 1-1-6l1-3h2v-4h2c.685-1.324 1.349-2.66 2-4l1-3h2v-2h2v-2h2v-2l5-1v-2h2v-2h2v-2h2v-2l5-1v-2h4V9h5V7h4V5l11-1V2l2.688-1 1.89-.555zm-62 49 2 1Z" transform="translate(207 89)" style="fill:#3a5a2b"/><path d="M0 0c1.344.288 2.676.632 4 1a94 94 0 0 1 4.25 2.063l2.14 1.097L12 5v2h2v2h3v2h2v2l4 1v2h2l1 4h2v2h2l1 4 3 1v2h2l1 5h2v4h2l1 9h2a100 100 0 0 1 2 6l.125 2.875L46 58h2c.15 13.208.15 13.208-.098 17.837-.228 3.062-.54 6.114-.902 9.163h-2l-.113-3.184c-.16-3.621-.344-7.237-.647-10.85L44 69l-.734-2.82a196 196 0 0 0-1.633-4.274L41 60l-.195-2.094c.006-1.636.09-3.273.195-4.906h-2v-4h-2v-5h-2a480 480 0 0 1-1.5-3.812l-.844-2.145L32 36v-3h-2v-2h-2v-4h-2v-2h-2l-1.625-1.375L21 22v-2h-2v-2h-2v-2a178 178 0 0 0-4-2l-3-1v-2H8V9H4L3 5h-4z" transform="translate(50 158)" style="fill:#3d5c2e"/><path d="M0 0c3.08-.136 6.159-.22 9.242-.2Q11.123-.14 13 0a86 86 0 0 1 5.564 1.073Q22.296 1.983 26 3v2h5v2h4v2l9 1v2h2v2h3v2h2v2h2v2l1.688-.312L57 20l1.379 1.043 1.371 1.332L62 25v2h-4l-1 2h-2v-2h-2v-2h-2v-2l-2.375-.937L46 21l-2-1v-2h-4v-2h-3v-2l-5.273-.684L30 13l-2-1-1 4h-3v-2l-2.937-.812L18 12l-1-3h-4V7l-3.25-.375A71 71 0 0 1 6 6L3.563 4.938 2 4V2H0zm57 29 3 3-2 1z" transform="translate(36 100)" style="fill:#3e5d30"/><path d="M0 0h3l1 7h2v7h2q.758 4.592 1.5 9.188l.434 2.619c.385 2.395.757 4.786 1.066 7.193.03 1.027.062 2.055.094 3.113L11 38H8l-1 4-6 1v-3h-2v-4h-2v-3h-2v-6h-2a132 132 0 0 1-3-5v-2h-2v-4h-2v-2h-2l-1.562-2.312L-19 9l1-3 4 1v2h2v2l3 1v2h2v4h2v2h2v3h2v4h2l1 9h2v4h2V29H4l-.078-1.582a168 168 0 0 0-.434-4.711L3 20a137 137 0 0 0-2.062-5.625A117 117 0 0 1-1 9l-.297-2.184-.016-1.878L-1 2z" transform="translate(112 120)" style="fill:#3a592a"/><path d="M0 0h6v2h5v2l1.688.375L15 5a206 206 0 0 1 5 2v2h2v2h4l1 4 4 1 2 6h2l1 4 4 1v4h2l1.5 2.25L45 36l.188 2.313L45 40h2l1 1.688L49 44l.125 2.75L49 49h2c.784 5.654 1.54 11.31 2 17 .213 5.334.13 10.665 0 16h-2V69h-2v-9h-2c-.717-2.332-1.422-4.632-2-7l-.125-2.437L45 49h-2l-1-9h-2v-4h-2l-1-5h-2l-2.125-2.375L31 26v-2h-2v-2h-2l-1-4h-2v-2l-4-1v-2h-2v-2h-3V9h-2V7l-2.562-.812a84 84 0 0 1-5.395-1.989A637 637 0 0 1 0 2z" transform="translate(49 156)" style="fill:#fcfdfc"/><path d="M0 0h2l.184 2.371.253 3.067.247 3.058L3 11l1 1 .114 1.674-.016 2.142-.008 2.085-.027 2.662L4 29h23v2h-2v3h42v2H-6l-1-20 2 2 .227 1.696c-.01.66-.02 1.32-.032 2l-.02 2.167-.05 2.262-.027 2.285c-.024 1.864-.06 3.727-.098 5.59h2l-.035-2.16c-.028-2.95-.032-5.89.035-8.84.136-1.4.297-2.797.5-4.187L-2 16h2v13h2z" transform="translate(100 209)" style="fill:#3d5c2e"/><path d="M0 0h5v2L3 3l-.625 2.063L2 7H0v2h-2v11h4v-2h2V5l3-2v2h2v11H7l-1 7H2v2H0v2h-2l2 5-11-2 2-1 1.125-2.062L-7 25h2v-4h-2v-2q-2.625-.04-5.25-.062l-2.953-.036L-18 19l-2.36.504L-22 20l1 3-2 2v-2l-4-1v-4h2v-2h3v-2h15V7h2V5h2l1-3h2z" transform="translate(67 13)" style="fill:#3d5c2e"/><path d="M0 0h5v2H2v2l-1.39.586c-2.712 1.15-5.399 2.311-8.047 3.601L-9 9v2h-4v2h-2l-1 4-4 1v2h-2v2h-2v2l-2 1-.625 2.063L-27 29h-2v2h-2v4h-2a117 117 0 0 0-2.8 7.336Q-36.91 45.665-38 49h-2v4h-2l.035 1.898.028 2.477.035 2.46L-42 62l-1 2a81 81 0 0 0-.535 4.133l-.264 2.441-.264 2.551-.275 2.574Q-44.674 78.85-45 82h-2l1-31h2l.438-2.25c.464-2.27.98-4.508 1.562-6.75h2v-4h2l.375-2.25L-37 33l1.063-2.312L-35 29h2v-3h2v-2h2v-2h2v-2h2l.813-1.937L-23 16l3-1v-2h2l1-4 6-2V5l7-1V2h4z" transform="translate(198 156)" style="fill:#fcfdfc"/><path d="M0 0h1v10H0zm-24 1h4v2h11v3l-4.59 2.93L-15 10l-1 2h2v2h3v2h10v-6h9l1-4 1.063-1.75L11 3l1 1 .125 2.938L12 10l-1 2H9v2H7v3h2l-1 5-3 1-1-4h-6v2h-9v-2h-5v-2l-4-1v-4h-2V5l-3-1z" transform="translate(78 48)" style="fill:#365725"/><path d="M0 0a53 53 0 0 1 3.5-.187Q5.252-.142 7 0l2.438.5L11 1v2h2l.25 1.75L13 7l-2 2.25L9 11l7 2v3h4v2l-2 1c-2.22.071-4.407.093-6.625.063l-1.852-.014Q7.263 19.029 5 19l-1 2 4 1-1 5H5v-5H2v-2H0v-4h-2v-5h-2l-.562-1.687L-5 7l.188-2.625L-4 2-2.375.688zm-7 5h2v2h-2z" transform="translate(49 31)" style="fill:#3f5d30"/><path d="m0 0 5 2V0h4v2h2v13H9v2H5L4 27H0v-3h-2v-2h-2c-.499-1.73-.996-3.46-1.477-5.195L-6 15l-.812-2.125L-7 11l1.438-2.75L-4 6h4z" transform="translate(158 47)" style="fill:#3e5c2f"/><path d="m0 0 2.388-.28c2.606-.086 5.193-.08 7.8-.032l2.693-.01q2.47.02 4.94.047L20 0l2.282 1.019L24 2l-2.937.375L18 3l-1 2h-4l1 3-.437 2.188L13 12l-5-1V9c-2.94.008-5.864.084-8.8.22q-2.092.16-4.177.398L-7 10l-1.824.636q-1.68.755-3.327 1.58a180 180 0 0 0-4.36 2.507L-19 16l-2.332.184L-23 16v-2l5-2v-2a132 132 0 0 1 5-3h2V5h4V3l2.863-1.48 1.94-.83zm24 2 2 1ZM13 12h4v2z" transform="translate(36 151)" style="fill:#3e5d30"/><path d="M0 0c1.605.114 3.209.242 4.813.375.893.07 1.786.14 2.707.21L10 1l1.824 1.04L13 3v2h4v2l1.813.375L21 8l1.75 1.063L24 10v2h2v2h2v2l3 1v3l4 1v2h2v4h2a132 132 0 0 1 3 5v2h-2v-3l-1.375 1.5L37 34h-2v-4l-4-1-1-4h-2l-1-1.312L26 22v-3l-4-1-1-4h-4v-2h-2v-2L6 7V5H1V3h-2z" transform="translate(54 153)" style="fill:#3b5a2c"/><path d="m0 0 1.75-.312L4 0c1.114 1.02 1.114 1.02 2.25 2.063L8 5l.25 1.89v1.923L8 12h3v2h2q.758 1.903 1.5 3.813l.844 2.144L16 22v3h4v2l-2.937-.812L14 25l-1-3-2 7H9l-1 4-4 1q-.04-2.594-.062-5.187l-.036-2.918L4 23a95 95 0 0 1 1-5h2V7H3L2 20H0v2h-4V11h2V9h2V4h3V2H0z" transform="translate(69 11)" style="fill:#3a592a"/><path d="M0 0c4.342-.172 8.656-.118 13 0v2L8.605 4.344 7 5H4v2H0v2h-2v2h-3v2a201 201 0 0 1-6 3h-2v2h-2v2h-3v2l-4 1-1-3 1-2h2v-2h2v-2l5-1V9l-4-2V6h6V4h4V2l2.688-1 1.89-.555z" transform="translate(207 89)" style="fill:#3e5c30"/><path d="m0 0 4 1v4H2v7H0v2h-2l-1 4h-2v2c-1.322.377-2.659.7-4 1a71 71 0 0 1-4.625.188l-2.352.042L-18 21l-2-2 10-1v-2h-8v-2h-2v-2h2v-2l1.625-.937L-14 8l3.188-.5L-8 7l1-2-4-2L0 2z" transform="translate(185 64)" style="fill:#3f5d30"/><path d="M0 0h7v2h2v2h2v3h2l1 7 2-1 2.094-.168 2.406-.02 2.406-.042L25 13l2 2H12V9l-2 1-1 10H5v-2l-4-1c-.09-1.065-.09-1.065-.184-2.152l-.253-2.786-.247-2.777L0 7l-1-1-2 5h-1V5h2V2h2z" transform="translate(169 29)" style="fill:#3d5c2e"/><path d="m0 0 2 1-1 4h-2zm-3 5h2v2h2l1-2v2h2v2H2l-.371 2.137L1 14a185 185 0 0 1-2.062 5.813L-2.16 22.77-3 25h-2v6h-2l-1 9h-1l-2-7-1 3h-2c1.63-6.01 3.271-12.017 5-18h2v-4h2l.438-3.375Q-4.328 8.805-4 7z" transform="translate(154 82)" style="fill:#3d5c2e"/><path d="m0 0 6 3v2h2v2h2v2h3v2h2v3h2v2h2l1 4h2l2 5h2a177 177 0 0 1-2 4 92 92 0 0 1-2 3 132 132 0 0 1-3-5v-2h-2v-3h-2v-2h-2v-2h-2l-1-4H8v-2l-4-1V9H2V7H0z" transform="translate(63 111)" style="fill:#3c5b2d"/><path d="M0 0h2v4h4v2L2 7v2H0l-1 4h-2v2l-4 1v4h-2v2h-2l-1 5h-2v4h-2v-2l-5 2 3-9h2v-2h2l1-4 3-1 1-4h2V9h2V6h2V4h2z" transform="translate(183 107)" style="fill:#3c5b2d"/><path d="M0 0h2v4H0v7h-2l-.078 1.477q-.186 2.297-.434 4.59L-3 20c-1.152 4.716-2.58 9.359-4 14h-2l-1 3h-2c-.073-2.686-.109-5.317 0-8 .28-2.151.652-4.262 1.066-6.39l.434-2.11.434-2.203Q-9.542 15.647-9 13h2V9h2l.25-3.375.27-1.934L-4 2-2.062.563z" transform="translate(165 136)" style="fill:#375827"/><path d="M0 0h2v4l2 1v2H2v2h-4l-1 4h-2v2h-2v3h-2v2h-2v2h-2l-.25 2.375L-14 27l-2.062 1.313L-18 29l-1-1-2 3 1-7h2v-4h2v-2h2l1-5h2v-2h2V9h2V7l4-1 1-4h2zm-20 31h2v3h-2z" transform="translate(185 167)" style="fill:#3c5b2d"/><path d="M0 0h6v2h5v2l1.688.375L15 5a206 206 0 0 1 5 2v2h2v2h4l1 4 4 1 2 6h2l1 4h2l-1 4-2-1v-2h-2v-2l-4-1v-2h-2l-1-4h-2v-2l-4-1v-2h-2v-2h-3V9h-2V7l-2.562-.812a84 84 0 0 1-5.395-1.989A637 637 0 0 1 0 2z" transform="translate(49 156)" style="fill:#fcfdfc"/><path d="m0 0 3 2v5h2a100 100 0 0 1 2 6l.125 2.875L7 18h2c.15 13.208.15 13.208-.098 17.837C8.674 38.9 8.362 41.951 8 45H6l-.113-3.184c-.16-3.621-.344-7.237-.647-10.85L5 29l-.734-2.82a196 196 0 0 0-1.633-4.274L2 20l-.195-2.094C1.81 16.27 1.895 14.633 2 13H0a550 550 0 0 1-.562-4.812L-.88 5.48-1 3z" transform="translate(89 198)" style="fill:#395929"/><path d="m0 0 2 2v16h72v2H1z" transform="translate(93 225)" style="fill:#627858"/><path d="m0 0 1.934-.2C3.29-.19 4.647-.103 6 0l1 3H4v2H0v2l-7 1v2l-1.312 1L-10 12h-3v2h-3v2h-2v2l-1.875.25L-22 19l-1.25 2.063L-24 23l-1-3 1.375-1.5L-22 17h2l-1-3 1-2h2v-2h2V8l4-1V5h3V3A214 214 0 0 1-2.402.668z" transform="translate(194 153)" style="fill:#3d5c2e"/><path d="M0 0h2v2l-5 1 3 2-1 4V7l-8 2v2l-5 1v2h-4v2l-6 1v-2l-3-1h2v-2h2v-2l5-1V7h4V5h5V3h4V1q2.495-.524 5-1" transform="translate(194 93)" style="fill:#3f5d30"/><path d="M0 0h1L0 10h-2v4h-2l.035 1.898.027 2.477.036 2.46L-4 23l-1 2a81 81 0 0 0-.535 4.133l-.264 2.441-.263 2.551-.276 2.574Q-6.674 39.85-7 43h-2l1-31h2l.438-2.25C-5.098 7.48-4.582 5.242-4 3h2V1z" transform="translate(160 195)" style="fill:#fcfcfc"/><path d="m0 0 1 2h2a480 480 0 0 1 2.5 5.188l1.406 2.917L8 13l.156 2.863L8 18h2c.081 1.437.14 2.874.188 4.313l.105 2.425L10 27l-1.512 1.793L7 30v-7H5v-5H3v-5H1V9h-2l-.977-5.273L-2 2z" transform="translate(88 138)" style="fill:#395929"/><path d="M0 0c1.605.114 3.209.242 4.813.375.893.07 1.786.14 2.707.21L10 1l1.824 1.04L13 3v2h4v2h2l1.688 1.813L22 11l-1 3h-4v-2h-2v-2L6 7V5H1V3h-2zm22 13 2 1h-3z" transform="translate(54 153)" style="fill:#3c5b2c"/><path d="M0 0h1a132 132 0 0 1 1.546 6.886L3 10c.232 4.713.192 9.408.125 14.125q-.016 1.882-.027 3.766Q3.064 32.445 3 37H0l-.076-1.545q-.175-3.447-.362-6.892l-.119-2.432-.127-2.315-.11-2.142L-1 20l-1-1c-.16-2.714-.122-5.407-.098-8.125.058-1.71.144-3.42.29-5.125.208-1.592.5-3.174.808-4.75z" transform="translate(104 201)" style="fill:#385828"/><path d="M0 0h4v2h11v3l-4.59 2.93L9 9l-1 2h2l-1 4-3 1-2-1v-4H2V4l-3-1z" transform="translate(54 49)" style="fill:#3e5d30"/><path d="M0 0c1.342.298 2.673.641 4 1a206 206 0 0 1 5 2v2h2v2l1.688-.312L15 7l1.379 1.043 1.371 1.332L20 12v2h-4l-1 2h-2v-2h-2v-2H9v-2l-2.375-.937L4 8 2 7V5L0 4zm15 16 3 3-2 1z" transform="translate(78 113)" style="fill:#3a5a2a"/><path d="m0 0 1 3h2v2h2c.784 5.654 1.54 11.31 2 17 .213 5.334.13 10.665 0 16H5V25H3v-9H1z" transform="translate(95 200)" style="fill:#eff1ee"/><path d="M0 0a53 53 0 0 1 3.5-.187Q5.252-.142 7 0l2.438.5L11 1v2h2v4H-2v4h-2l-.562-1.687L-5 7l.188-2.625L-4 2-2.375.688zm-7 5h2v2h-2zm5 6 2 1-2 1z" transform="translate(49 31)" style="fill:#3b5a2c"/><path d="M0 0h2v4h2a479 479 0 0 1 1.5 4.25l.844 2.39L7 13c.03.758.062 1.516.094 2.297L7 17H5v2H2v-4H0a78 78 0 0 1-2-5l-.125-2.312L-2 6h-2l-1-5h2v3l2-1z" transform="translate(107 103)" style="fill:#3d5b2e"/><path d="M0 0h3l1 7h2q.331 3.874.625 7.75l.195 2.21q.154 2.104.251 4.21L7 23l-.977 2.516L5 27l-1-8-2-1-.852-1.82q-.795-2.37-1.546-4.754L-1 9l-.227-2.082-.023-1.856L-1 2z" transform="translate(112 120)" style="fill:#3f5d30"/><path d="m0 0 2 2 .414 2.383.211 2.742.227 2.758L3 12l3 1v2H1v-2h-6v2l-3-1-.125-2.312L-8 9l1-1.812L-6 6h4z" transform="translate(168 34)" style="fill:#3f5d30"/><path d="m0 0 1 1.813L2 4v3h2v6h2v2H4l-2 5h-3l1-7h2v-2l-5-1c.274-2.009.617-4.009 1-6l1.063-2.375zm3 0h5v2H6v4H4V4H2z" transform="translate(163 194)" style="fill:#395929"/><path d="M0 0h1v10H0zm10 3 2 1c.043 2 .04 4 0 6l-1 2H9v2l-2.125 2.188L4 18l-3.312-.25L-2 17l1-7h9l1-4z" transform="translate(78 48)" style="fill:#3e5c2f"/><path d="M0 0h2v4h2l2 5h2l1 6-4 3-1-5H2v-2H0V9h-2l-.687-2.25L-3 4l1.313-2.312z" transform="translate(87 67)" style="fill:#3c5c2d"/><path d="m0 0 3 1v4H1l.188 2.938.011 1.906L1 12q-.675 2.49-1.5 4.938C-.99 18.295-1.486 19.65-2 21l-1-1.812L-4 17v-3h-2c.684-5.273.684-5.273 1-7l1-2h2V1z" transform="translate(135 162)" style="fill:#385828"/><path d="M0 0h4v5H2v2H0v4h-2l-.875 2.375L-4 16l-2 2-1-2h-2v-2h2l.375-2.25L-6 9l1.063-2.312L-4 5h2V2h2z" transform="translate(167 180)" style="fill:#fdfdfd"/><path d="m0 0 3 2c-.9 8.614-.9 8.614-1.562 12.563L1 17h-2v5h-3V11h2V4h2z" transform="translate(142 114)" style="fill:#375827"/><path d="m0 0 2.36-.195 2.39.07 2.422.055L9 0v4H7v2H3v2h-7V6h-2V4h2V2l1.703-.992z" transform="translate(171 72)" style="fill:#fdfdfd"/><path d="M0 0h2v2h2v2h2v2l5 1v2l3 1v1H9V9L-2 6V4l-14 1V3l1.563-.5L-12 2q1.749-.104 3.5-.125Q-6.749 1.896-5 2l2.438.5L-1 3zm-22 5h6a89 89 0 0 1-4 2h-2z" transform="translate(225 156)" style="fill:#345523"/><path d="m0 0 3 1c.13 2.224.189 4.436.2 6.664-.067.77-.132 1.542-.2 2.336l-1.5 3.063L0 15h-4V4h2z" transform="translate(84 43)" style="fill:#fdfdfd"/><path d="m0 0 2 1v3H0v2h-2l-.937 2.375L-4 11l-1 2h-2v4h-2a100 100 0 0 1-1-6l1-3h2V4l1.938-.375L-3 3l1-2zm-11 17 2 1Z" transform="translate(156 121)" style="fill:#3b5a2b"/><path d="M0 0h2v4H0v2h-2l-.25 2.375L-3 11l-2.062 1.313L-7 13l-1-1-2 3 1-7h2V4h2V2a156 156 0 0 1 5-2m-9 15h2v3h-2z" transform="translate(174 183)" style="fill:#3b5b2b"/><path d="m0 0 2 3 1.125 2.625L4 9q.126 2.436.125 4.875C4.093 15.25 4.055 16.625 4 18h2v11H4v-4H2l-1-9h-2v-2h2z" transform="translate(112 131)" style="fill:#fdfdfd"/><path d="M0 0h73v1H0z" transform="translate(94 245)" style="fill:#f0f2ef"/><path d="M0 0h9l1 4h2v2l-2 1a164 164 0 0 1-5.246.133L3 7 0 6V4h-2z" transform="translate(64 56)" style="fill:#fdfdfd"/><path d="M0 0h4v2h2v13H4v-2H2v-2H0z" transform="translate(163 47)" style="fill:#fefefe"/><path d="M0 0v2h-71V1L-8.561.092l1.933-.029C-4.418.032-2.21 0 0 0" transform="translate(167 243)" style="fill:#718469"/><path d="m0 0 2 2v3h2v4h2a180 180 0 0 1-1 6l-1 1a64 64 0 0 0 0 4H2v-5H0L-3 5l3 1z" transform="translate(85 187)" style="fill:#395929"/><path d="M0 0h9v4H7v2L5 7c-1.54.07-3.083.085-4.625.063l-2.477-.028L-4 7V3l4-1z" transform="translate(178 60)" style="fill:#fefefe"/><path d="m0 0 2 1Zm2 1h2v2h2l1 4 3 1 1 2c.04 2 .043 4 0 6l-5-2v-2H4q-.504-2.187-1-4.375l-.562-2.46L2 3z" transform="translate(74 177)" style="fill:#3d5c2f"/><path d="M0 0h3v2h2v2h2v9H3v-2H1L0 9a78 78 0 0 1-.062-4.625l.027-2.477z" transform="translate(171 36)" style="fill:#fdfdfd"/><path d="M0 0h4v11H2v2h-4V2h2z" transform="translate(67 20)" style="fill:#fdfefd"/><path d="m0 0 1 3h2a447 447 0 0 1-1 6 136 136 0 0 1-1 4h-2l-.375 2.438L-2 18l-2 1a567 567 0 0 1-.125-6.25l-.05-1.777-.02-1.739L-4 6l1.008-2.422L-2 2v4h2z" transform="translate(155 167)" style="fill:#375827"/><path d="M0 0h2v17h16V9l2 2v7H0z" transform="translate(107 220)" style="fill:#b5beb1"/><path d="M0 0h2v2l4 1v11H2v-3H0z" transform="translate(156 60)" style="fill:#fefefe"/><path d="M0 0h6v2h5v2l1.688.375L15 5a206 206 0 0 1 5 2v3l-5 1V9h-2V7l-2.562-.812a84 84 0 0 1-5.395-1.989A637 637 0 0 1 0 2z" transform="translate(49 156)" style="fill:#fff"/><path d="m0 0 5 1-.137 1.797L4 5 1.418 6.703q-1.605.795-3.23 1.547l-1.62.813-1.588.765L-8 11l-2.387.172L-12 11V9l5-2V5a132 132 0 0 1 5-3h2z" transform="translate(25 156)" style="fill:#3c5c2b"/><path d="M0 0h2l-.937 3.25A186 186 0 0 0-1 11h-2l.108 1.908q.235 4.327.454 8.655l.17 3.001c.14 2.816.256 5.617.268 8.436a76 76 0 0 1-.473 4.215L-3 40h-2l1-31h2l.438-2.25C-1.098 4.48-.582 2.242 0 0" transform="translate(156 198)" style="fill:#b8c2b5"/><path d="M0 0h5v2H2v2l-1.39.586c-2.712 1.15-5.399 2.311-8.047 3.601L-9 9v2h-2l-1-2-2 2h-3V9l6-2V5l7-1V2h4z" transform="translate(198 156)" style="fill:#f6f7f6"/><path d="m0 0 7 1v2h2L8 5 6.563 7.125 5 9H3V7H0V5l-3.437-.375c-.639-.07-1.277-.14-1.934-.21L-7 4l-1-2h7zm9 5h3l-1 2z" transform="translate(73 109)" style="fill:#3b5a2b"/><path d="M0 0c2.22-.071 4.407-.093 6.625-.062l1.852.013Q10.737-.029 13 0v2L8.605 4.344 7 5H4v2H0V5l-2-1V1z" transform="translate(207 89)" style="fill:#385928"/><path d="m0 0 2 1 .184 2.336.253 3.039.247 3.023L3 12l1 2c.153 1.812.25 3.628.316 5.445l.127 3.262.12 3.418.13 3.441Q4.853 33.783 5 38l-2-2c-.2-1.783-.39-3.57-.482-5.361l-.08-2.076q-.09-2.03-.192-4.06l-.072-1.817L2 21l-1-3a80 80 0 0 1-.316-4.23l-.127-2.432-.12-2.525-.13-2.561Q.148 3.126 0 0" transform="translate(102 173)" style="fill:#f2f4f1"/><path d="m0 0 1 2h2v11l-5 2q-.08-3.187-.125-6.375l-.05-1.828-.02-1.758L-2 2z" transform="translate(73 16)" style="fill:#39592a"/><path d="M0 0h3q.079 2.937.125 5.875l.07 3.305L3 12l-2 2h-3q-.079-2.655-.125-5.312l-.07-2.989L-2 3l1.008-1.855z" transform="translate(75 31)" style="fill:#fdfefd"/><path d="m0 0 2 1-1 4h-2zm-3 5h2v2h2l1-2v2h2v2H2l-.312 2.063L1 14c-.923 2.375-1.952 4.676-3 7l-1-3 .34-2.262.598-2.425.59-2.45L-1 9h-2v2h-2z" transform="translate(154 82)" style="fill:#3a592b"/><path d="M0 0h2v5h2l1 6 2-7h2l.195 5.273L9 11l-2 2-.195 2.602.07 3.023.055 3.04L7 24l-2-2a99 99 0 0 1-1.5-6.187c-.99-4.597-.99-4.597-2.137-9.157l-.55-1.843L0 2z" transform="translate(91 156)" style="fill:#3f5e31"/><path d="M0 0c1.769-.064 3.539-.125 5.309-.133L7 0l2 1v2h4v2l-2 1c-1.748.065-3.497.123-5.246.102L4 6l-2.437-.5L0 5l-1-4z" transform="translate(56 44)" style="fill:#fefefe"/><path d="M0 0h1l.402 3.027.536 3.91.263 1.999c.235 1.692.514 3.379.799 5.064l1 1 .133 1.898c-.012 3.752-.087 7.468-.36 11.211A507 507 0 0 1 3 36H2l-.076-1.665q-.177-3.761-.361-7.523l-.12-2.619C1.323 21.792 1.193 19.397 1 17l-.535-3.113L0 12h-1a560 560 0 0 1-.062-4.312l-.036-2.426L-1 3z" transform="translate(148 202)" style="fill:#3f5d30"/><path d="m0 0 4 1v2h2v2l3 1v5l-3 1v-2H4V8H2L.438 5.688-1 3z" transform="translate(94 126)" style="fill:#3d5b2e"/><path d="M0 0h2a4752 4752 0 0 1 1.5 9.313l.434 2.67.41 2.568.38 2.364L5 19v3H3l-1-7-2 1-2-1-1-11 2 1 1 4z" transform="translate(118 134)" style="fill:#3f5d30"/><path d="m0 0 2 4h-3zm2 4h2l2 5h2a177 177 0 0 1-2 4 92 92 0 0 1-2 3 132 132 0 0 1-3-5V9h-2V7L.375 5.375z" transform="translate(81 127)" style="fill:#375827"/><path d="M0 0h2v2H0l-3 9-6 1-1-3 1-2h2V5c.482-.425.964-.85 1.46-1.29.633-.44 1.264-.88 1.915-1.335l1.898-1.352z" transform="translate(196 160)" style="fill:#3c5b2d"/><path d="M0 0h13v2l-1.937 1.5L8 5c-.77.066-1.542.131-2.336.2C3.436 5.188 1.224 5.13-1 5z" transform="translate(183 49)" style="fill:#fdfdfd"/><path d="M0 0h2c-.254 3.013-.557 6.008-1 9a55 55 0 0 1-1.062 3.563C-.372 13.367-.682 14.17-1 15h-4c.137-1.64.288-3.28.512-4.91.16-.69.322-1.38.488-2.09a76 76 0 0 1 2.063-4.437A209 209 0 0 1 0 0" transform="translate(163 223)" style="fill:#8d9d87"/><path d="m0 0 2 1v2h2l1 14H3l-1-5-2 1-1-3-.133-1.719.008-1.781-.008-1.781L-1 3z" transform="translate(98 166)" style="fill:#3b5b2c"/><path d="M0 0h2c.063 4.002.078 7.998 0 12a267 267 0 0 1-1 11h-2c-.029-3.27-.047-6.542-.062-9.812l-.026-2.815-.01-2.705-.016-2.491L-1 3z" transform="translate(96 220)" style="fill:#365726"/><path d="m0 0 2.688.438L5 1 4 5H2v2l-6 1V6l-3-1h2V3h2V1z" transform="translate(174 102)" style="fill:#385827"/><path d="M0 0h2l.25 2.25L2 5 0 7.313-2 9l1 4-3-1-1-6h2V4h2zm6 2h2v2H6zM4 4h2v2H4zM2 6l2 1-1.375 2L1 11h-2l.375-1.937L0 7z" transform="translate(172 165)" style="fill:#385929"/><path d="M0 0c1.344.288 2.676.632 4 1a88 88 0 0 1 4 2v3l2 1-2 2-2.125.125L4 9 3 5h-4z" transform="translate(50 158)" style="fill:#3d5c2e"/><path d="M0 0h7L6 5H4v4H2V7l-5 2z" transform="translate(165 129)" style="fill:#3b5a2b"/><path d="M0 0h2v4h4v2L2 7v2H0l-1 4h-2V9l-2-1V6h2V4h2z" transform="translate(183 107)" style="fill:#375826"/><path d="M0 0h5v2L3 3l-.625 2.063L2 7H0v2l-4 1-1-5h2l1-3h2z" transform="translate(67 13)" style="fill:#3b5a2c"/><path d="M0 0h4L3 8h2l1-4 1 2-.121 1.727L6 13H2l-1 4h-2L2 2H0z" transform="translate(163 221)" style="fill:#3c5b2d"/><path d="M0 0h1c.284 1.737.553 3.477.777 5.223.124 1.54.23 3.083.27 4.628C2.09 14.234 2.051 18.617 2 23l-2-1-.617-2.117L-1 17c-.092-2.388-.14-4.739-.125-7.125l-.012-1.879C-1.133 6.33-1.07 4.665-1 3z" transform="translate(148 211)" style="fill:#355624"/><path d="M0 0h2l1.125 2.75L4 6l-.875 2.375L2 10H0l-2-2h-3l1-4h2V2h2zm-6 8 1 2-2-1z" transform="translate(158 114)" style="fill:#3d5c2e"/><path d="M0 0q2.688-.04 5.375-.062l3.023-.036L11 0l2 1v4H4V3H2V1z" transform="translate(47 33)" style="fill:#f7f8f6"/><path d="M0 0h2l.184 2.371.253 3.067.247 3.058L3 11l1 1 .114 1.674-.016 2.142-.01 2.315-.026 2.432-.013 2.443Q4.03 26.003 4 29H2z" transform="translate(100 209)" style="fill:#4b663e"/><path d="M0 0h4v9L2 6V4H0v7h-4V9h2l-2-5h2V2h2z" transform="translate(69 36)" style="fill:#697e5f"/><path d="m0 0 1 2h2v2H1l-1 7 2 1-3 1-1-4-2 1V2z" transform="translate(162 203)" style="fill:#375827"/><path d="m0 0 2 4 2 1V2h2v4H4l-1 9H2L0 8l-1 3h-2z" transform="translate(143 107)" style="fill:#3a5a2a"/><path d="M0 0h2v3h2l1 7 2-1 2.094-.168 2.406-.02 2.406-.042L16 9l2 2H3V5l-5 2V5l2-1z" transform="translate(178 33)" style="fill:#415e32"/><path d="M0 0h2v4h2v2h2v2H4l-1 5a131 131 0 0 1-4-5V6h-2V4l2-1z" transform="translate(103 134)" style="fill:#385828"/><path d="m0 0 3.438-.25L6 0l1 3H4v2L-6 6l-1-2A97 97 0 0 1-1.957.89z" transform="translate(194 153)" style="fill:#395929"/><path d="m0 0 1 3h2v2h2l.125 2.688L5 11l-1 2.875L3 16H1z" transform="translate(95 200)" style="fill:#fdfdfd"/><path d="M0 0q3.125-.08 6.25-.125l1.777-.05 1.739-.02L13 0l4 2L6 3l5 2v2L2 4V2H0z" transform="translate(36 100)" style="fill:#8c9e82"/><path d="M0 0h1v11h2v2H0l-1 4h-3v-2h2l-.07-2.012q-.055-2.715-.063-5.43L-2 5l1-3.125z" transform="translate(120 145)" style="fill:#3b5a2c"/><path d="m0 0 4 1 1 5-5 1v2h-2V5l-2-1V2h4z" transform="translate(180 98)" style="fill:#3a5a2a"/><path d="M0 0h2q-.211 3.469-.437 6.938l-.12 1.998A153 153 0 0 1 1 14l-1 1c-.399 2.355-.75 4.696-1.062 7.063l-.276 2.01Q-1.673 26.534-2 29h-1q.21-4.438.438-8.875l.119-2.55.127-2.442.11-2.254L-2 11l1-2c.225-1.537.408-3.08.563-4.625l.253-2.477z" transform="translate(156 209)" style="fill:#405e31"/><path d="m0 0 2 1-3 2h6v2l-7 1v2l-4 2 1-5h-2V3h3V1l1.875-.562C-1.424.293-.723.148 0 0" transform="translate(189 155)" style="fill:#395928"/><path d="M0 0h2v4H0v7h-2l-1.687-1.687L-5 7l.063-2.625L-4 2-2.062.688z" transform="translate(165 136)" style="fill:#385828"/><path d="m0 0 1.75-.312L4 0c1.114 1.02 1.114 1.02 2.25 2.063L8 5l.25 1.89v1.923L8 12l3 1H7V7H3L2 9H0V4h3V2H0z" transform="translate(69 11)" style="fill:#3c5b2d"/><path d="M0 0h2l1 1.813L4 4v3H2v8l-2-2-.125-2.125L0 9h-2l-1-7h2z" transform="translate(94 196)" style="fill:#f8f9f8"/><path d="M0 0h22v2L2 1v2q-2.186.755-4.375 1.5l-2.46.844L-7 6h-2V4a78 78 0 0 1 5-2l2.313-.125L0 2z" transform="translate(196 150)" style="fill:#afbbaa"/><path d="m0 0 1 2h2l.879 5.273L4 9l-1 2H1V9h-2l-.977-5.273L-2 2z" transform="translate(88 138)" style="fill:#3c5c2d"/><path d="M0 0h4v2h3v2h-18l2-2 2.164-.195 2.461.07 2.477.055L0 2z" transform="translate(196 205)" style="fill:#7d8f76"/><path d="M0 0h2v2h2l1 4h2v2h2l-1 2-4-1V7L0 6V4h-2V1z" transform="translate(69 165)" style="fill:#fcfcfc"/><path d="M0 0h2L0 12l-3-1-1-6h2V2h2z" transform="translate(151 91)" style="fill:#375827"/><path d="m0 0 1.5 1.438L3 4l.27 2.094q.042 2.356-.032 4.71L3 13l-1 3.063L1 18H0c-.196-2.812-.38-5.625-.562-8.437l-.17-2.432-.147-2.315-.143-2.142L-1 1z" transform="translate(126 207)" style="fill:#3d5c2e"/><path d="M0 0h4l1 9-2 1V8L0 7a129 129 0 0 1-1-6z" transform="translate(94 82)" style="fill:#375827"/><path d="M0 0h3l1.75 1.813L6 4 5 7H1V5h-2l-1-3zm6 6 2 1H5z" transform="translate(70 160)" style="fill:#385928"/><path d="M0 0a63 63 0 0 1 1 4l.022 1.923L.879 7.89l-.147 2.148-.17 2.211-.158 2.258Q.21 17.254 0 20h-2v4h-2l.402-1.984A255 255 0 0 0-2 13c.306-3.22.55-6.436.754-9.664L-1 1z" transform="translate(135 143)" style="fill:#516b44"/><path d="M0 0h12l-1 5H7V3l-2.375-.375L2 2zm11 5 2 1Z" transform="translate(40 102)" style="fill:#2d5119"/><path d="M0 0h2v4h2a132 132 0 0 1 3 5v2H5V8L3.625 9.5 2 11H0V7l-2-1 2-1z" transform="translate(89 176)" style="fill:#3c5b2d"/><path d="M0 0h1c.043 2 .04 4 0 6L0 8h-2l-.125-2.875L-2 2zm1 6h2v13H2z" transform="translate(100 177)" style="fill:#325420"/><path d="m0 0 3.313-.25 1.804.016L7 0l2.008.672C10.695 1.396 12.35 2.192 14 3l-4 1V2L-4 3V1l1.563-.5zm-10 3h6a89 89 0 0 1-4 2h-2z" transform="translate(213 158)" style="fill:#607756"/><path d="M0 0h4l1 6h2L6 9 2 8V6H0z" transform="translate(76 125)" style="fill:#3a5a2b"/><path d="M0 0h1c.39 1.654.708 3.326 1 5q.098 3.155.063 6.313l-.028 3.238L2 17l-2-1-.625-2.5A66 66 0 0 1-1 10c-.095-2.383-.125-4.76-.133-7.145L-1 1z" transform="translate(150 200)" style="fill:#39592a"/><path d="M0 0h2v2h2c.781 5.273.781 5.273 1 7v2H3L1.375 9.625 0 8V6h-2V4l3-1z" transform="translate(71 172)" style="fill:#395929"/><path d="M0 0h3v2h2l1 4-5 1-.375-1.937L0 3l-2-1zm6 6 2 1Z" transform="translate(66 169)" style="fill:#3b5a2c"/><path d="M0 0h36v1H0z" transform="translate(129 243)" style="fill:#627858"/><path d="M0 0h18v2H0z" transform="translate(109 238)" style="fill:#4c683f"/><path d="M0 0h2v4h2v2H2l-2 5h-3l1-7h2z" transform="translate(165 203)" style="fill:#809279"/><path d="M0 0h4l1 3H3l1 4-2 2V7l-4-1V2h2z" transform="translate(42 29)" style="fill:#3a592a"/><path d="m0 0 2 2 .319 2.247.095 2.76.117 2.99.094 3.128.117 3.152Q2.884 20.137 3 24H1z" transform="translate(129 214)" style="fill:#536f45"/><path d="M0 0c2-.043 4-.04 6 0l2 1-2 4H1V3h-2z" transform="translate(54 153)" style="fill:#385827"/><path d="M0 0h2l1.29 1.023 1.335 1.352 1.352 1.336L7 5v2H3L2 9H0V7h-2V5l4-1zm2 9 3 3-2 1z" transform="translate(91 120)" style="fill:#385828"/><path d="m0 0 1 2h2L2 7l-3 1-1-4h-4V2l2.438-.437L-1 1z" transform="translate(84 63)" style="fill:#3a5a2b"/><path d="m0 0 3 2v5h2l-1 4H0a327 327 0 0 1-.562-3.812L-.88 5.043-1 3z" transform="translate(89 198)" style="fill:#3a5a2b"/><path d="m0 0 .984 1.688L2 4l.266 2.438L2.25 9l.016 2.563L2 14l-2 4-2-9 1-1c.23-1.347.412-2.704.563-4.062l.253-2.223z" transform="translate(90 40)" style="fill:#3d5c2e"/><path d="m0 0 2 1v16H0z" transform="translate(100 221)" style="fill:#dadfd8"/><path d="M0 0h1l1 13h2v2H2v5H0z" transform="translate(125 165)" style="fill:#a2b09c"/><path d="M0 0q2.749-.134 5.5-.125l2.781-.008L11 0c1.673.299 3.343.622 5 1v1L-5 3V1C-3.343.622-1.673.299 0 0" transform="translate(40 149)" style="fill:#e1e5e0"/><path d="M0 0h2c.223 1.915.428 3.832.625 5.75l.352 3.234L3 12l-.977 2.39L1 16l-.184-1.574A342 342 0 0 0 0 8l-.625-2.812L-1 3z" transform="translate(116 131)" style="fill:#3d5c2e"/><path d="m0 0 2.188-.187L4 0 2 5H0v4h-2l-.687-2.812L-3 3l1.188-1.875zm-4 9 2 1Z" transform="translate(149 129)" style="fill:#3b5a2c"/><path d="m0 0 3 3 .188 3.188L3 9h2v2l-3 1-2-1z" transform="translate(151 60)" style="fill:#335521"/><path d="m0 0 2 2v7h-18V8H0z" transform="translate(125 229)" style="fill:#e4e8e2"/><path d="M0 0h2v4h2c.81 2.211 1.582 4.432 2.332 6.664L7 13l.188 3.063L7 18l-2-1-1.125-2.75L3 11l-.125-2.875L3 6H1z" transform="translate(109 156)" style="fill:#a5b2a0"/><path d="M0 0h3v2h2v3H3v4H1L0 5h-2l1-2 2 1z" transform="translate(73 120)" style="fill:#385827"/><path d="m0 0 7 1v2H1L0 5l-5.371-.586L-7 4l-1-2h7zm7 3h2L8 5zm2 2h3l-1 2z" transform="translate(73 109)" style="fill:#405e32"/><path d="M0 0h2c.554 1.558 1.09 3.124 1.555 4.71L4 7c.135 2.956.126 5.881.07 8.84L4 18H3a126 126 0 0 1-1.488-4.71L1 11C.554 7.34.253 3.678 0 0" transform="translate(118 185)" style="fill:#f1f2f0"/><path d="M0 0h5v2H2v2l-8 3-1-3h3V2h4z" transform="translate(198 156)" style="fill:#e0e4de"/><path d="M0 0h2L0 7l-4 1-1-3 1-2h2V1z" transform="translate(189 104)" style="fill:#3b5b2b"/><path d="m0 0 1 2h2v6L0 9V6h-2c.3-1.673.636-3.34 1-5z" transform="translate(104 98)" style="fill:#385828"/><path d="M0 0h1v5h-2v5h-3V3l4-1z" transform="translate(142 126)" style="fill:#365725"/><path d="M0 0c1.342.298 2.673.641 4 1a206 206 0 0 1 5 2v2H5L4 7H2V5L0 4z" transform="translate(78 113)" style="fill:#3b5b2c"/><path d="M0 0h1c.062 3.669.08 7.331 0 11a161 161 0 0 1-1 9h-1c-.029-2.958-.047-5.917-.062-8.875l-.026-2.55-.01-2.442-.016-2.254L-1 2z" transform="translate(146 218)" style="fill:#86987f"/><path d="M0 0h1c.087 2.482.126 4.958.133 7.441L1 10l-1 3.125L-1 15h-1q.21-3.47.438-6.937l.119-1.999C-1.331 4.374-1.17 2.686-1 1z" transform="translate(104 201)" style="fill:#355625"/><path d="m0 0 2 1 1 20-2-3-.319-1.993-.095-2.237-.117-2.432-.094-2.525-.117-2.561Q.117 3.126 0 0" transform="translate(102 173)" style="fill:#f2f4f2"/><path d="M0 0h2L1 11h-2v7h-2c.27-3.01.59-6.006 1-9a206 206 0 0 1 2-9" transform="translate(156 149)" style="fill:#637a5a"/><path d="M0 0h6v2h5v2l-1.562.688L7 5l-1.824-.602C3.427 3.64 1.706 2.848 0 2zm9 5 2 1Z" transform="translate(49 156)" style="fill:#b2bcae"/><path d="M0 0h2v11H0V7h-2c.322-1.336.658-2.669 1-4z" transform="translate(116 149)" style="fill:#c2cabf"/><path d="M0 0h4a180 180 0 0 1-1 6L2 7a64 64 0 0 0 0 4H0a199 199 0 0 1-.844-5.176L-1 4l.438-2.437C-.377 1.047-.192.53 0 0" transform="translate(87 196)" style="fill:#3d5c2d"/><path d="m0 0 1.5 1.188L3 3l.188 2.688L3 8H1zm-2 5h2v6h-2z" transform="translate(155 162)" style="fill:#365725"/><path d="M0 0h2c.397 2.996.742 5.989 1 9 .077 3.003.064 5.997 0 9H2q-.508-2.812-1-5.625L.438 9.211 0 6c-.037-2-.048-4 0-6" transform="translate(122 147)" style="fill:#e8ebe7"/><path d="m0 0 6 1v2h3v4H6V5H4V3H2V1z" transform="translate(67 113)" style="fill:#d3d8d0"/><path d="M0 0c2.342-.08 4.656-.047 7 0L6 4H2V2h-8V1C-4.01.612-2.006.292 0 0" transform="translate(218 87)" style="fill:#f0f2ef"/><path d="M0 0h1q.039 2.188.063 4.375l.035 2.46L1 9l-1 2h-2a293 293 0 0 1-.125-4.375l-.07-2.46L-2 2z" transform="translate(84 47)" style="fill:#fff"/><path d="M0 0q2.013.975 4 2l1 1c.04 2 .043 4 0 6L4 7H2V5H0z" transform="translate(89 191)" style="fill:#fcfcfc"/><path d="M0 0h2v5h2l1 11-2-1c-.453-1.526-.894-3.058-1.242-4.611l-.383-1.826-.406-1.815A207 207 0 0 1 0 2z" transform="translate(91 156)" style="fill:#4f6a42"/><path d="M0 0h2L0 9l-3-1-1-4h2z" transform="translate(159 156)" style="fill:#3c5b2d"/><path d="M0 0h2l1 7-2 1-1.062-1.187L-1 5l.375-2.687zm3 7h2v2l-3 1z" transform="translate(107 142)" style="fill:#3e5d30"/><path d="m0 0 .559 1.61L1 4 .66 7.016.063 10.25l-.59 3.266L-1 16h-2q.174-2.876.375-5.75c.07-1.067.14-2.135.21-3.234L-2 4l1.04-2.39z" transform="translate(141 109)" style="fill:#f3f5f3"/><path d="m0 0 1 2 2 1H1l-1 8h-2a293 293 0 0 1-.125-4.375l-.07-2.46L-2 2z" transform="translate(73 16)" style="fill:#3f5d30"/><path d="m0 0 2 2 .625 2.563L3 8c.073 3.002.06 5.998 0 9l-2-2-.319-1.604-.095-1.873-.117-2.03-.094-2.118-.117-2.14A657 657 0 0 1 0 0" transform="translate(122 203)" style="fill:#83977a"/><path d="M0 0h2v4h2l1 6-2-1V6H1zm-2 5 2 2v3h-2z" transform="translate(109 143)" style="fill:#3f5f2e"/><path d="m0 0 3 1v4h-7V3h2V1z" transform="translate(171 124)" style="fill:#385828"/><path d="m0 0 2.25-.125L4 0v2L0 3v2l-4-1V2l1.75-1zm-4 5h2v2h-2z" transform="translate(189 100)" style="fill:#ced4cb"/><path d="m0 0 2.137.992L5 2l2.895.195 2.918-.07 2.957-.055L16 2v2q-3.094.04-6.187.063l-3.481.035L3 4a79 79 0 0 1-5-1z" transform="translate(162 82)" style="fill:#cfd5cc"/><path d="M0 0h2v2c-1.322.377-2.659.7-4 1a71 71 0 0 1-4.625.188l-2.352.042L-11 3l-2-2Q-9.812.748-6.625.5l1.828-.145Q-2.398.171 0 0" transform="translate(178 82)" style="fill:#536d47"/><path d="M0 0h11L8 3l-3.062.25L2 3 0 2z" transform="translate(185 44)" style="fill:#325421"/><path d="M0 0h13v2H1z" transform="translate(132 238)" style="fill:#4c683f"/><path d="M0 0h1l.438 2.813L2 6l1 3H1v2h-2a585 585 0 0 1-.062-4.375l-.036-2.46L-1 2z" transform="translate(157 174)" style="fill:#e7ebe6"/><path d="m0 0 4 1 1 5H2L.313 4.5-1 3z" transform="translate(94 126)" style="fill:#3d5b2e"/><path d="M0 0h7l1 3H-2z" transform="translate(168 80)" style="fill:#31541f"/><path d="M0 0h7v2L5 3v4H3V5H1z" transform="translate(151 71)" style="fill:#375827"/><path d="M0 0h2l-.25 1.625L1 4a74 74 0 0 1-2.062 3.25L-3 10h-1V4h2V2h2z" transform="translate(198 54)" style="fill:#fcfcfc"/><path d="M0 0h2v4h-13V2H0z" transform="translate(69 47)" style="fill:#7b8d73"/><path d="M0 0h9v2l2 1H2V1z" transform="translate(47 33)" style="fill:#fefefe"/><path d="M0 0h20l1 2H0z" transform="translate(172 203)" style="fill:#5e7950"/><path d="M0 0q2.687-.079 5.375-.125l3.023-.07L11 0l2 2H0z" transform="translate(176 201)" style="fill:#dee2dc"/><path d="M0 0h5v2H3v4H1V4h-2z" transform="translate(166 194)" style="fill:#3e5d30"/><path d="m0 0 1 3 3 1-4 5-1-2h-2V5h2z" transform="translate(161 189)" style="fill:#fefefe"/><path d="M0 0h2l1 8-3 2z" transform="translate(129 176)" style="fill:#395929"/><path d="M0 0a64 64 0 0 1 4 0L3 5H1v2h-2l1-5-2-1z" transform="translate(180 160)" style="fill:#3b5a2c"/><path d="m0 0 2 4h-3zm2 4h2L3 9h-4V7L.375 5.375z" transform="translate(81 127)" style="fill:#385827"/><path d="M0 0h2l1.063 1.25L4 3l-.375 2.188L3 7H1V5h-2z" transform="translate(90 75)" style="fill:#345621"/><path d="M0 0h2v2h9L9 4l-2.164.195-2.461-.07-2.477-.055L0 4z" transform="translate(174 63)" style="fill:#e1e5e0"/><path d="M0 0h2v2H0zm2 2 6 2-1 5H5V4H2z" transform="translate(49 49)" style="fill:#466339"/><path d="M0 0h2L1 11h-2a758 758 0 0 1-.062-4.937l-.036-2.778L-1 1z" transform="translate(179 38)" style="fill:#335521"/><path d="M0 0h2v2H0zm-2 2h2v2h-2zm-2 2 2 1-1.375 2L-5 9h-2l.375-1.937L-6 5zm-5 5h2v2h-2z" transform="translate(178 167)" style="fill:#98a692"/><path d="M0 0h2L1 9l-2-1V6h-2V4l2-1z" transform="translate(103 134)" style="fill:#3a5a2b"/><path d="m0 0 2 1 1 8H1v2h-3l1-1.562L0 7l.133-1.824A151 151 0 0 0 0 0" transform="translate(111 111)" style="fill:#405e32"/><path d="M0 0h2L0 7l-5 1V6h2V4h2z" transform="translate(183 107)" style="fill:#365725"/><path d="M0 0h2v4h2L3 7 .438 8.188-2 9l-1-4 3 1z" transform="translate(98 85)" style="fill:#3e5d30"/><path d="m0 0 1 2h2l1 6-4 3-1-3 2-1z" transform="translate(92 74)" style="fill:#426034"/><path d="m0 0 2 1-1 3 1.863-.219 2.45-.281 2.425-.281L10 3h3l-2 2-2.602.195-3.023-.07-3.04-.055L0 5l-1-4z" transform="translate(181 50)" style="fill:#94a58b"/><path d="m0 0 2 2 .227 1.88c-.01.743-.02 1.487-.032 2.253l-.02 2.441-.05 2.551-.027 2.574Q2.062 16.85 2 20H1z" transform="translate(93 225)" style="fill:#68815c"/><path d="M0 0h2v4H0l-1 7-2-2a91 91 0 0 1 1-4 206 206 0 0 1 2-5" transform="translate(96 216)" style="fill:#405e32"/><path d="M0 0h2l1 4h2L4 8 2 7V5H0z" transform="translate(82 178)" style="fill:#fdfdfc"/><path d="m0 0 2.36-.195 2.39.07 2.422.055L9 0 8 4 7 2l-2.687-.125L1 2l-2.875 1L-4 4V2l1.703-.992z" transform="translate(171 72)" style="fill:#809476"/><path d="M0 0h2v11H0z" transform="translate(80 47)" style="fill:#d3d9d1"/><path d="m0 0 2.094-.266L4.5-.25l2.406-.016L9 0l2 2H-2z" transform="translate(185 42)" style="fill:#82937b"/><path d="m0 0 4 1H2v6h-3l-1 2V5h2z" transform="translate(76 24)" style="fill:#6b8063"/><path d="m0 0 2 2c.217 1.594.424 3.192.531 4.797l.094 1.828.117 1.852Q2.882 12.737 3 15H1z" transform="translate(91 218)" style="fill:#eff1ee"/><path d="M0 0h2v4H0l-1 7-1.125-1.75L-3 7l.813-2.062L-1 3z" transform="translate(116 127)" style="fill:#3e5d2f"/><path d="m0 0 2 4H0v3l-3-1V2z" transform="translate(147 105)" style="fill:#3e5c2f"/><path d="M0 0h5L4 2H0zm-6 2h6l-2 3-4-2z" transform="translate(196 93)" style="fill:#3b5a2c"/><path d="M0 0h4v2l-1.375.688L1 4-.187 6.625-1 9h-1V3h2z" transform="translate(167 31)" style="fill:#385827"/><path d="M0 0h1L0 18h-1a1100 1100 0 0 1-.062-6.187l-.036-3.481L-1 5a79 79 0 0 1 1-5" transform="translate(151 220)" style="fill:#567348"/><path d="M0 0h1L0 14h-1a1241 1241 0 0 1-.062-6.437l-.026-1.854C-1.097 4.139-1.052 2.569-1 1z" transform="translate(127 211)" style="fill:#345523"/><path d="m0 0 .93 1.207L2 3l.633 2.262.492 2.426.508 2.449L4 12a102 102 0 0 1-3-3L0 7l-.098-1.727z" transform="translate(112 131)" style="fill:#f0f2ef"/><path d="M0 0h1v12l-3 2q.212-2.657.438-5.312c.08-.987.162-1.973.246-2.989L-1 3z" transform="translate(144 122)" style="fill:#b8c2b4"/><path d="M0 0h2v2c-.398.425-.797.85-1.207 1.29L-.813 4.624l-1.582 1.352L-4 7h-3V5h3V3h2V1z" transform="translate(169 113)" style="fill:#fbfcfb"/><path d="m0 0 1 3-2 2zm1 3h2l-.375 2.438L2 8 0 9z" transform="translate(109 111)" style="fill:#345624"/><path d="m0 0 2.164-.195 2.461.07 2.477.055L9 0v2H-2z" transform="translate(207 89)" style="fill:#526d46"/><path d="M0 0a64 64 0 0 1 4 0 177 177 0 0 1-2 4 92 92 0 0 1-2 3 129 129 0 0 1-1-6z" transform="translate(94 82)" style="fill:#385928"/><path d="M0 0h1v11h-2a585 585 0 0 1-.062-4.375l-.036-2.46L-1 2z" transform="translate(150 58)" style="fill:#a0af98"/><path d="m0 0 12 1-2 2c-1.747.095-3.497.187-5.246.168L3 3 0 2z" transform="translate(64 60)" style="fill:#eef1ee"/><path d="M0 0h4a93 93 0 0 1-1 4L2 5c-1.666.04-3.334.043-5 0l1-2h2z" transform="translate(69 51)" style="fill:#3f5e30"/><path d="M0 0h1l.188 2.813L1 6-.5 7.875-2 9l-.195-5.273L-2 2z" transform="translate(82 32)" style="fill:#325420"/><path d="M0 0h1c.054 1.583.093 3.166.125 4.75l.07 2.672L1 10l-1.008 2.328L-1 14c-.059-3.002-.085-5.998 0-9l.5-3.062z" transform="translate(129 222)" style="fill:#352"/><path d="M0 0h2v13H1z" transform="translate(131 225)" style="fill:#dadfd8"/><path d="M0 0h1v13l-2-4 .023-2.36.352-2.39.336-2.422z" transform="translate(148 211)" style="fill:#294f12"/><path d="M0 0h1l1 17-2-2c-.103-1.834-.193-3.671-.176-5.508l.051-2.117.027-2.14C-.074 3.488-.038 1.744 0 0" transform="translate(125 214)" style="fill:#516d42"/><path d="M0 0h2L1 8l-2 1z" transform="translate(94 213)" style="fill:#385928"/><path d="m0 0 2 4H0l-1 7-2-2a91 91 0 0 1 1-4 206 206 0 0 1 2-5" transform="translate(94 209)" style="fill:#3f5d31"/><path d="m0 0 1 3h2v6H1L0 7l-.098-1.727z" transform="translate(95 200)" style="fill:#fefefe"/><path d="M0 0h2l-.937 3.25A186 186 0 0 0-1 11h-2l.938-3.25A186 186 0 0 0 0 0" transform="translate(156 198)" style="fill:#f7f8f7"/><path d="M0 0h2q.079 1.905.125 3.813l.07 2.144L2 8l-2 3z" transform="translate(147 194)" style="fill:#c9d0c6"/><path d="m0 0 .563 1.5L1 4C.836 6.148.561 8.259.254 10.39L0 12l-2 1q.212-2.407.438-4.812c.08-.894.162-1.787.246-2.708L-1 3z" transform="translate(133 180)" style="fill:#d6dcd4"/><path d="M0 0h1v5l-5 1V3l1.938-1.687z" transform="translate(166 186)" style="fill:#fdfdfd"/><path d="m0 0 5 3v2L1 4zm5 5h2v2H5zm2 2h2v2H7z" transform="translate(62 171)" style="fill:#edefec"/><path d="m0 0 2 1Zm-2 1 2 1-3 5h-4V5l5-2z" transform="translate(20 160)" style="fill:#a0ac9b"/><path d="m0 0 3 1v2l3 1v1H1V3l-3-1z" transform="translate(233 162)" style="fill:#365726"/><path d="m0 0 2 1v6H0zm4 0 2 1-1 4-3-1z" transform="translate(141 131)" style="fill:#405e32"/><path d="M0 0h3a177 177 0 0 1-2 4 92 92 0 0 1-2 3l-1-6z" transform="translate(162 111)" style="fill:#375826"/><path d="m0 0 2 1-3 1v2l-4 1V3h2V1zm0 5h2v2H0z" transform="translate(174 102)" style="fill:#416033"/><path d="m0 0 8 1-1 2-7-2zm8 3h5v2L8 4z" transform="translate(54 102)" style="fill:#677e5c"/><path d="M0 0h4v2H1l1 9H0z" transform="translate(163 47)" style="fill:#b7c1b3"/><path d="M0 0q2.124-.079 4.25-.125l2.39-.07L9 0l2.297 1.008L13 2v2l-2.562-.937A75 75 0 0 0 7 2c-2.331-.423-4.646-.717-7-1z" transform="translate(187 41)" style="fill:#f4f5f3"/><path d="m0 0 2 2 .195 1.945-.07 2.18L2.07 8.32 2 10 0 8l-.45-1.691C-.673 4.544-.838 2.772-1 1z" transform="translate(168 34)" style="fill:#365725"/><path d="M0 0h12l-2 2c-1.746.127-3.495.25-5.246.266L3 2z" transform="translate(46 28)" style="fill:#355625"/><path d="m0 0 3 2v7l3 1H2V4H0z" transform="translate(74 14)" style="fill:#ecefeb"/><path d="M0 0h18v1H0z" transform="translate(109 238)" style="fill:#546e48"/><path d="M0 0h1l.098 5.273L1 7 0 9h-2l-.125-2.25L-2 4l1-2.312z" transform="translate(162 229)" style="fill:#c0c8bd"/><path d="m0 0 3 1-2 11H0z" transform="translate(153 215)" style="fill:#fff"/><path d="M0 0h2v4h2v2l-1.937.375L0 7l-1 2z" transform="translate(165 203)" style="fill:#e0e4df"/><path d="m0 0 2 2 .195 1.727L2 9H0l-.562-1.687L-1 5l.438-2.75z" transform="translate(96 178)" style="fill:#edefec"/><path d="M0 0h2l1 5-3 1-1-5z" transform="translate(87 176)" style="fill:#3d5c2d"/><path d="M0 0h1v9l-2 1q-.04-2.22-.062-4.437l-.036-2.497L-1 1z" transform="translate(124 173)" style="fill:#385928"/><path d="M0 0h7c-.985.69-1.989 1.35-3 2L2 3.188 0 4l-3-1h2z" transform="translate(20 161)" style="fill:#607756"/><path d="m0 0 3 1-1 1.313L1 4v3l-3-1c.312-1.338.648-2.671 1-4z" transform="translate(62 154)" style="fill:#3e5d30"/><path d="m0 0 4 2-2 5H0z" transform="translate(63 111)" style="fill:#385828"/><path d="m0 0 1 2-1 3h-4V2zm0 5 2 1Z" transform="translate(51 102)" style="fill:#365726"/><path d="M0 0h9v2H0z" transform="translate(67 67)" style="fill:#687e5e"/><path d="M0 0h9v2H0z" transform="translate(178 60)" style="fill:#e3e7e2"/><path d="M0 0h2v9H0z" transform="translate(176 40)" style="fill:#cbd3c8"/><path d="M0 0h2v7h-4V5h2z" transform="translate(67 40)" style="fill:#96a68e"/><path d="M0 0a75 75 0 0 1 4.563-.062l2.503.027L9 0l1 2H1L0 6l-1-5z" transform="translate(55 43)" style="fill:#798e6f"/><path d="M0 0h2v9h2v2H0z" transform="translate(65 22)" style="fill:#d0d6cd"/><path d="M0 0h15v2H0z" transform="translate(45 27)" style="fill:#4d6a40"/><path d="M0 0h9v2H0z" transform="translate(47 25)" style="fill:#c9d0c6"/><path d="M0 0h1v9h-2a481 481 0 0 1-.062-3.937l-.036-2.215L-1 1z" transform="translate(99 211)" style="fill:#f9faf8"/><path d="m0 0 2 1v9L0 8l-.195-1.945.07-2.18.055-2.195z" transform="translate(105 201)" style="fill:#778b6d"/><path d="M0 0h2l-.875 1.938L0 4l-2 1-3-1V2h4zm-1 5h2L0 7z" transform="translate(65 167)" style="fill:#3c5b2c"/><path d="M0 0h1L.414 5.371 0 7l-2 1-.125-2.875L-2 2z" transform="translate(97 160)" style="fill:#355624"/><path d="m0 0 3.313-.125L6 0 4.438.875 2 2c-2.319.735-4.65 1.367-7 2V2l2.125-1z" transform="translate(192 152)" style="fill:#526e45"/><path d="M0 0h1v8l-3 1c.588-3.024 1.227-6.018 2-9" transform="translate(120 145)" style="fill:#345622"/><path d="M0 0h1v6l-3 2c.684-5.371.684-5.371 1-7z" transform="translate(115 124)" style="fill:#355625"/><path d="M0 0h2v3h2l1 7-2-1V5H1z" transform="translate(102 104)" style="fill:#405e32"/><path d="m0 0 3 1-1 4H0l-1-4zm-3 3h2v2h-2z" transform="translate(156 84)" style="fill:#3b5a2b"/><path d="M0 0h6l1 4H5L4 2H0zm7 4 2 2H7z" transform="translate(76 67)" style="fill:#e1e5e0"/><path d="M0 0h2L1 4l-3 1-2-1V2a89 89 0 0 1 4-2" transform="translate(62 60)" style="fill:#385827"/><path d="M0 0h2v13H0z" transform="translate(167 49)" style="fill:#f1f3f0"/><path d="m0 0 2 2 .195 1.727L2 9H0z" transform="translate(125 229)" style="fill:#c0c8bc"/><path d="M0 0h2v10L0 6l-.125-3.25z" transform="translate(98 225)" style="fill:#5c7452"/><path d="M0 0h1v16H0z" transform="translate(100 221)" style="fill:#fbfcfb"/><path d="M0 0h2a505 505 0 0 1-2 6l-1 2h-2a505 505 0 0 1 2-6z" transform="translate(174 214)" style="fill:#e3e7e2"/><path d="M0 0h2v2h3v2h-7l2-1z" transform="translate(198 205)" style="fill:#aab5a5"/><path d="M0 0h2L1 7l-2-2z" transform="translate(92 184)" style="fill:#395928"/><path d="M0 0h2l1 4H1zm3 4 4 1v2L3 6z" transform="translate(73 167)" style="fill:#dbe0d9"/><path d="M0 0h2v2h3v2l2 1-7-1z" transform="translate(238 165)" style="fill:#bec6ba"/><path d="m0 0 4 1-1 3H1zm4 3 2 1H3z" transform="translate(72 163)" style="fill:#3a592a"/><path d="M0 0a227 227 0 0 1 4.813-.187L7.52-.293 10 0l1.824 1.512L13 3H9V1H0z" transform="translate(214 159)" style="fill:#446236"/><path d="m0 0 1.727-.195L7 0v2h-9z" transform="translate(33 158)" style="fill:#8d9d86"/><path d="M0 0h2l-.375 2.438L1 5l-2 1-2-2 1.375-2z" transform="translate(96 156)" style="fill:#3c5b2c"/><path d="M0 0h3v5H0V3l-2-1z" transform="translate(64 156)" style="fill:#3c5b2c"/><path d="M0 0h1v8l-2 1a481 481 0 0 1-.062-3.937l-.036-2.215L-1 1z" transform="translate(137 125)" style="fill:#f3f4f2"/><path d="m0 0 9 3v2L0 2z" transform="translate(38 102)" style="fill:#dde1db"/><path d="m0 0 10 1v1H2v2H0z" transform="translate(34 98)" style="fill:#e9ece8"/><path d="M0 0h9v2L0 1zm-1 1 1 3h-2z" transform="translate(64 56)" style="fill:#a2b09c"/><path d="M0 0h2v13l-2-1z" transform="translate(91 42)" style="fill:#9eac98"/><path d="M0 0h14v1L0 2z" transform="translate(95 243)" style="fill:#627858"/><path d="m0 0 3 1v6H1z" transform="translate(164 233)" style="fill:#2c5116"/><path d="M0 0h1c.06 2.67.084 5.33 0 8l-.5 3-.5 2h-1z" transform="translate(154 225)" style="fill:#516c43"/><path d="M0 0h2v13H1z" transform="translate(100 209)" style="fill:#c0c9bc"/><path d="M0 0h2v8L0 7z" transform="translate(150 209)" style="fill:#375825"/><path d="M0 0h2v6l-3-1z" transform="translate(83 187)" style="fill:#3a592a"/><path d="m0 0 1 2h2v2H1v2h-2a100 100 0 0 1 0-5z" transform="translate(155 183)" style="fill:#6d8363"/><path d="m0 0 3 1-1 2-3-1zm1 3 1 3-3 1V5h2z" transform="translate(81 184)" style="fill:#3e5d2f"/><path d="M0 0h1v9h-2z" transform="translate(159 162)" style="fill:#f1f3f0"/><path d="m0 0 1 3h2L2 9 1 7.313 0 5l-.125-2.75z" transform="translate(155 167)" style="fill:#405e32"/><path d="M0 0h1L0 10h-1q-.04-2.22-.062-4.437l-.036-2.497L-1 1z" transform="translate(153 159)" style="fill:#e4e8e3"/><path d="M0 0h3v7L1 6 .375 2.938z" transform="translate(120 158)" style="fill:#375827"/><path d="M0 0h1l1 12H0z" transform="translate(121 144)" style="fill:#49653c"/><path d="M0 0h3L2 9H1z" transform="translate(160 147)" style="fill:#3d5c2f"/><path d="M0 0h2l1 10-2-1z" transform="translate(118 134)" style="fill:#436234"/><path d="M0 0h2l1 9H1z" transform="translate(109 122)" style="fill:#f5f6f5"/><path d="m0 0 2 2-2 3h-4V3l4-1z" transform="translate(153 122)" style="fill:#3b5a2b"/><path d="M0 0h4l1 2-1 3-3-1z" transform="translate(147 98)" style="fill:#375726"/><path d="m0 0 2 1Zm3 0h2v5H3L2 1zm2 2 2 1Z" transform="translate(153 73)" style="fill:#3a5a2a"/><path d="M0 0h2v11l-4-1h3z" transform="translate(160 63)" style="fill:#bec7b9"/></svg>
